<svg xmlns="http://www.w3.org/2000/svg" viewBox="0 0 600 1000" role="img" aria-label="Transmission towers over rolling hills">
  <defs>
    <linearGradient id="bg1-mobile" x1="0" y1="0" x2="1" y2="1">
      <stop offset="0%" stop-color="#1c2026" />
      <stop offset="100%" stop-color="#3a424d" />
    </linearGradient>
  </defs>
  <rect width="600" height="1000" fill="url(#bg1-mobile)" />

  <!-- City skyline with buildings -->
  <g class="svg-buildings" fill="#1a1f24" opacity="0.7">
    <!-- Tall building 1 -->
    <rect x="30" y="500" width="70" height="150" />
    <!-- Windows -->
    <g fill="#3d4a5c" opacity="0.6">
      <rect x="38" y="515" width="12" height="16" />
      <rect x="58" y="515" width="12" height="16" />
      <rect x="78" y="515" width="12" height="16" />
      <rect x="38" y="542" width="12" height="16" />
      <rect x="58" y="542" width="12" height="16" />
      <rect x="78" y="542" width="12" height="16" />
      <rect x="38" y="569" width="12" height="16" />
      <rect x="58" y="569" width="12" height="16" />
      <rect x="78" y="569" width="12" height="16" />
      <rect x="38" y="596" width="12" height="16" />
      <rect x="58" y="596" width="12" height="16" />
      <rect x="78" y="596" width="12" height="16" />
      <rect x="38" y="623" width="12" height="16" />
      <rect x="58" y="623" width="12" height="16" />
      <rect x="78" y="623" width="12" height="16" />
    </g>

    <!-- Medium building 2 -->
    <rect x="115" y="460" width="85" height="190" />
    <!-- Windows -->
    <g fill="#3d4a5c" opacity="0.6">
      <rect x="125" y="475" width="14" height="18" />
      <rect x="148" y="475" width="14" height="18" />
      <rect x="171" y="475" width="14" height="18" />
      <rect x="125" y="505" width="14" height="18" />
      <rect x="148" y="505" width="14" height="18" />
      <rect x="171" y="505" width="14" height="18" />
      <rect x="125" y="535" width="14" height="18" />
      <rect x="148" y="535" width="14" height="18" />
      <rect x="171" y="535" width="14" height="18" />
      <rect x="125" y="565" width="14" height="18" />
      <rect x="148" y="565" width="14" height="18" />
      <rect x="171" y="565" width="14" height="18" />
      <rect x="125" y="595" width="14" height="18" />
      <rect x="148" y="595" width="14" height="18" />
      <rect x="171" y="595" width="14" height="18" />
      <rect x="125" y="625" width="14" height="18" />
      <rect x="148" y="625" width="14" height="18" />
      <rect x="171" y="625" width="14" height="18" />
    </g>

    <!-- Short building 3 -->
    <rect x="215" y="550" width="60" height="100" />
    <!-- Windows -->
    <g fill="#3d4a5c" opacity="0.6">
      <rect x="225" y="562" width="11" height="15" />
      <rect x="243" y="562" width="11" height="15" />
      <rect x="261" y="562" width="11" height="15" />
      <rect x="225" y="588" width="11" height="15" />
      <rect x="243" y="588" width="11" height="15" />
      <rect x="261" y="588" width="11" height="15" />
      <rect x="225" y="614" width="11" height="15" />
      <rect x="243" y="614" width="11" height="15" />
      <rect x="261" y="614" width="11" height="15" />
    </g>
  </g>

  <!-- Rolling hills -->
  <path class="svg-terrain" d="M0 680 L200 630 L400 660 L600 640 L600 1000 L0 1000 Z" fill="#2c3239" />
  <path class="svg-terrain" d="M0 720 L180 670 L380 700 L600 680 L600 1000 L0 1000 Z" fill="#353c45" opacity="0.9" />

  <!-- Transmission Tower with Lattice Structure (shorter and more proportional) -->
  <g class="svg-tower-main" stroke="#c5cdd6" stroke-width="10" stroke-linecap="round" fill="none">
    <!-- Main legs (wider base, shorter height) -->
    <path d="M220 900 L280 480 L360 480 L420 900" />

    <!-- Cross-arms (wider at bottom, narrower at top) -->
    <path d="M238 820 L402 820" />
    <path d="M252 720 L388 720" />
    <path d="M268 620 L372 620" />
    <path d="M284 540 L356 540" />

    <!-- Top peak -->
    <path d="M280 480 L360 480" />
    <line x1="320" y1="480" x2="320" y2="440" />
  </g>

  <!-- Lattice cross-bracing (thinner) -->
  <g class="svg-tower-lattice" stroke="#a8b2bd" stroke-width="6" stroke-linecap="round" fill="none" opacity="0.9">
    <!-- Diagonal bracing -->
    <path d="M238 820 L268 720 M268 720 L252 620" />
    <path d="M402 820 L372 720 M372 720 L388 620" />
    <path d="M252 720 L284 620 M284 620 L268 540" />
    <path d="M388 720 L356 620 M356 620 L372 540" />

    <!-- Horizontal supports -->
    <path d="M280 580 L360 580" />
    <path d="M274 670 L366 670" />
    <path d="M260 770 L380 770" />
  </g>

  <!-- Insulators on cross-arms -->
  <g class="svg-insulators" fill="#485460">
    <circle cx="238" cy="820" r="9" />
    <circle cx="402" cy="820" r="9" />
    <circle cx="252" cy="720" r="8" />
    <circle cx="388" cy="720" r="8" />
    <circle cx="268" cy="620" r="8" />
    <circle cx="372" cy="620" r="8" />
  </g>

  <!-- Power lines connecting to tower -->
  <g class="svg-powerlines" stroke="#485460" stroke-width="4" fill="none" opacity="0.8">
    <!-- Lines from left side -->
    <path d="M0 825 L238 820" />
    <path d="M0 725 L252 720" />
    <path d="M0 625 L268 620" />

    <!-- Lines to right side -->
    <path d="M402 820 L600 815" />
    <path d="M388 720 L600 715" />
    <path d="M372 620 L600 615" />
  </g>

  <!-- Power line sag/curve detail -->
  <g stroke="#485460" stroke-width="3" fill="none" opacity="0.6">
    <path d="M0 827 Q120 835 238 822" />
    <path d="M0 727 Q130 735 252 722" />
    <path d="M0 627 Q140 635 268 622" />
    <path d="M402 822 Q500 828 600 817" />
    <path d="M388 722 Q490 726 600 717" />
    <path d="M372 622 Q480 625 600 617" />
  </g>

  <!-- Additional decorative elements -->
  <g class="svg-sun-glow" stroke="#ffb020" stroke-width="3" fill="none" opacity="0.85">
    <path d="M0 200 C150 160 300 160 450 200" />
    <path d="M450 200 C525 230 600 230 600 200" />
  </g>
  <circle class="svg-sun-glow" cx="150" cy="180" r="60" fill="#ffb020" opacity="0.12" />
</svg>
